# xmcd
# 
# Track frame offsets:
#     150
#     11850
#     40210
#     58427
#     82172
# 
# Disc length: 1303
# 
# Revision: 15
# Processed by: cddbd v1.5.2PL0 Copyright (c) Steve Scherf et al.
# Submitted via: fre:ac v1.0.31
# 
DISCID=44051505
DTITLE=Korn - Issues - All Mixed Up (Limited Edition CD2)
DYEAR=1999
DGENRE=Alternative
TTITLE0=A.D.I.D.A.S. (Radio Mix)
TTITLE1=Good God (Dub Pistols Mix)
TTITLE2=Got The Life (Josh Abraham Remix)
TTITLE3=Twist/Chi (Live)
TTITLE4=Jingle Balls (Previously Unreleased)
EXTD=YEAR: 1999
EXTT0=
EXTT1=
EXTT2=
EXTT3=
EXTT4=
PLAYORDER=
